<svg width="289" height="212" viewBox="0 0 289 212" fill="none" xmlns="http://www.w3.org/2000/svg">
<rect x="71" y="1" width="216" height="39" stroke="#1F77B4" stroke-width="2"/>
<path d="M100.445 26H99.3359L99.9766 22.8516H98.1406L98.3594 21.7266H100.211L100.789 18.8828H98.8516L99.0781 17.7656H101.016L101.641 14.7266H102.75L102.125 17.7656H104.695L105.32 14.7266H106.438L105.812 17.7656H107.758L107.539 18.8828H105.586L105 21.7266H107.031L106.812 22.8516H104.773L104.125 26H103.008L103.656 22.8516H101.086L100.445 26ZM101.32 21.7266H103.891L104.469 18.8828H101.898L101.32 21.7266ZM113.844 26V14.2344H115.203V26H113.844ZM122 26.1484C120.828 26.1484 119.891 25.5938 119.375 24.6562H119.25V26H117.891V14.2344H119.25V18.9062H119.375C119.836 18.0078 120.844 17.4297 122 17.4297C124.141 17.4297 125.531 19.1406 125.531 21.7812V21.7969C125.531 24.4219 124.133 26.1484 122 26.1484ZM121.688 24.9453C123.227 24.9453 124.141 23.7578 124.141 21.7969V21.7812C124.141 19.8203 123.227 18.6328 121.688 18.6328C120.156 18.6328 119.219 19.8359 119.219 21.7812V21.7969C119.219 23.7422 120.156 24.9453 121.688 24.9453ZM130.531 26.1484C128.656 26.1484 127.367 25.2422 127.211 23.8516H128.602C128.828 24.5547 129.5 25.0156 130.578 25.0156C131.711 25.0156 132.516 24.4766 132.516 23.7109V23.6953C132.516 23.125 132.086 22.7266 131.047 22.4766L129.742 22.1641C128.164 21.7891 127.453 21.1016 127.453 19.8906V19.8828C127.453 18.4844 128.797 17.4297 130.586 17.4297C132.352 17.4297 133.578 18.3125 133.766 19.6875H132.43C132.25 19.0234 131.594 18.5625 130.578 18.5625C129.578 18.5625 128.844 19.0781 128.844 19.8203V19.8359C128.844 20.4062 129.266 20.7656 130.258 21.0078L131.555 21.3203C133.141 21.7031 133.906 22.3906 133.906 23.5938V23.6094C133.906 25.1094 132.445 26.1484 130.531 26.1484ZM143.992 26.1484C141.594 26.1484 140.109 24.4922 140.109 21.7969V21.7812C140.109 19.0781 141.594 17.4297 143.992 17.4297C146.391 17.4297 147.875 19.0781 147.875 21.7812V21.7969C147.875 24.4922 146.391 26.1484 143.992 26.1484ZM143.992 24.9453C145.586 24.9453 146.484 23.7812 146.484 21.7969V21.7812C146.484 19.7891 145.586 18.6328 143.992 18.6328C142.398 18.6328 141.5 19.7891 141.5 21.7812V21.7969C141.5 23.7812 142.398 24.9453 143.992 24.9453ZM150.547 26V18.7031H149.148V17.5781H150.547V16.6406C150.547 14.9609 151.391 14.1562 152.992 14.1562C153.32 14.1562 153.617 14.1797 153.898 14.2344V15.3203C153.734 15.2891 153.508 15.2812 153.266 15.2812C152.297 15.2812 151.906 15.7578 151.906 16.6797V17.5781H153.82V18.7031H151.906V26H150.547ZM160.859 26V18.7031H159.461V17.5781H160.859V16.6406C160.859 14.9609 161.703 14.1562 163.305 14.1562C163.633 14.1562 163.93 14.1797 164.211 14.2344V15.3203C164.047 15.2891 163.82 15.2812 163.578 15.2812C162.609 15.2812 162.219 15.7578 162.219 16.6797V17.5781H164.133V18.7031H162.219V26H160.859ZM169.195 26.1484C166.797 26.1484 165.312 24.4922 165.312 21.7969V21.7812C165.312 19.0781 166.797 17.4297 169.195 17.4297C171.594 17.4297 173.078 19.0781 173.078 21.7812V21.7969C173.078 24.4922 171.594 26.1484 169.195 26.1484ZM169.195 24.9453C170.789 24.9453 171.688 23.7812 171.688 21.7969V21.7812C171.688 19.7891 170.789 18.6328 169.195 18.6328C167.602 18.6328 166.703 19.7891 166.703 21.7812V21.7969C166.703 23.7812 167.602 24.9453 169.195 24.9453ZM178.648 26.1484C176.25 26.1484 174.766 24.4922 174.766 21.7969V21.7812C174.766 19.0781 176.25 17.4297 178.648 17.4297C181.047 17.4297 182.531 19.0781 182.531 21.7812V21.7969C182.531 24.4922 181.047 26.1484 178.648 26.1484ZM178.648 24.9453C180.242 24.9453 181.141 23.7812 181.141 21.7969V21.7812C181.141 19.7891 180.242 18.6328 178.648 18.6328C177.055 18.6328 176.156 19.7891 176.156 21.7812V21.7969C176.156 23.7812 177.055 24.9453 178.648 24.9453ZM187.75 26.1484C185.617 26.1484 184.219 24.4219 184.219 21.7969V21.7812C184.219 19.1406 185.609 17.4297 187.75 17.4297C188.906 17.4297 189.914 18.0078 190.375 18.9062H190.5V14.2344H191.859V26H190.5V24.6562H190.375C189.859 25.5938 188.922 26.1484 187.75 26.1484ZM188.062 24.9453C189.594 24.9453 190.531 23.7422 190.531 21.7969V21.7812C190.531 19.8359 189.594 18.6328 188.062 18.6328C186.523 18.6328 185.609 19.8203 185.609 21.7812V21.7969C185.609 23.7578 186.523 24.9453 188.062 24.9453ZM199.703 15.9531C199.188 15.9531 198.766 15.5312 198.766 15.0156C198.766 14.5 199.188 14.0781 199.703 14.0781C200.219 14.0781 200.641 14.5 200.641 15.0156C200.641 15.5312 200.219 15.9531 199.703 15.9531ZM199.016 26V17.5781H200.375V26H199.016ZM202.938 26V17.5781H204.297V18.8438H204.422C204.844 17.9531 205.633 17.4297 206.875 17.4297C208.766 17.4297 209.82 18.5469 209.82 20.5469V26H208.461V20.875C208.461 19.3594 207.836 18.6328 206.492 18.6328C205.148 18.6328 204.297 19.5391 204.297 21.0156V26H202.938ZM217.359 26V18.7031H215.961V17.5781H217.359V16.6406C217.359 14.9609 218.203 14.1562 219.805 14.1562C220.133 14.1562 220.43 14.1797 220.711 14.2344V15.3203C220.547 15.2891 220.32 15.2812 220.078 15.2812C219.109 15.2812 218.719 15.7578 218.719 16.6797V17.5781H220.633V18.7031H218.719V26H217.359ZM222.594 26V17.5781H223.953V18.8281H224.078C224.398 17.9453 225.188 17.4297 226.328 17.4297C226.586 17.4297 226.875 17.4609 227.008 17.4844V18.8047C226.727 18.7578 226.469 18.7266 226.172 18.7266C224.875 18.7266 223.953 19.5469 223.953 20.7812V26H222.594ZM229.406 15.9531C228.891 15.9531 228.469 15.5312 228.469 15.0156C228.469 14.5 228.891 14.0781 229.406 14.0781C229.922 14.0781 230.344 14.5 230.344 15.0156C230.344 15.5312 229.922 15.9531 229.406 15.9531ZM228.719 26V17.5781H230.078V26H228.719ZM235.75 26.1484C233.617 26.1484 232.219 24.4219 232.219 21.7969V21.7812C232.219 19.1406 233.609 17.4297 235.75 17.4297C236.906 17.4297 237.914 18.0078 238.375 18.9062H238.5V14.2344H239.859V26H238.5V24.6562H238.375C237.859 25.5938 236.922 26.1484 235.75 26.1484ZM236.062 24.9453C237.594 24.9453 238.531 23.7422 238.531 21.7969V21.7812C238.531 19.8359 237.594 18.6328 236.062 18.6328C234.523 18.6328 233.609 19.8203 233.609 21.7812V21.7969C233.609 23.7578 234.523 24.9453 236.062 24.9453ZM245.938 28.9688C243.906 28.9688 242.609 28.0547 242.398 26.6719L242.414 26.6641H243.82L243.828 26.6719C243.977 27.3125 244.727 27.7656 245.938 27.7656C247.445 27.7656 248.344 27.0547 248.344 25.8125V24.1094H248.219C247.688 25.0391 246.734 25.5625 245.578 25.5625C243.398 25.5625 242.047 23.875 242.047 21.5156V21.5C242.047 19.1406 243.406 17.4297 245.609 17.4297C246.797 17.4297 247.719 18.0156 248.234 18.9688H248.328V17.5781H249.688V25.8828C249.688 27.7656 248.234 28.9688 245.938 28.9688ZM245.875 24.3594C247.438 24.3594 248.375 23.1875 248.375 21.5156V21.5C248.375 19.8281 247.43 18.6328 245.875 18.6328C244.312 18.6328 243.438 19.8281 243.438 21.5V21.5156C243.438 23.1875 244.312 24.3594 245.875 24.3594ZM255.656 26.1484C253.25 26.1484 251.797 24.4609 251.797 21.8203V21.8125C251.797 19.2109 253.281 17.4297 255.57 17.4297C257.859 17.4297 259.25 19.1328 259.25 21.6484V22.1797H253.188C253.227 23.9219 254.188 24.9375 255.688 24.9375C256.828 24.9375 257.531 24.3984 257.758 23.8906L257.789 23.8203H259.148L259.133 23.8828C258.844 25.0234 257.641 26.1484 255.656 26.1484ZM255.562 18.6406C254.312 18.6406 253.359 19.4922 253.211 21.0938H257.867C257.727 19.4297 256.805 18.6406 255.562 18.6406Z" fill="black"/>
<rect x="27" y="96" width="120" height="39" stroke="#1F77B4" stroke-width="2"/>
<path d="M41.8672 121.062C40.1328 121.062 39.4062 120.422 39.4062 118.812V113.703H38.0781V112.578H39.4062V110.398H40.8125V112.578H42.6562V113.703H40.8125V118.469C40.8125 119.461 41.1562 119.859 42.0312 119.859C42.2734 119.859 42.4062 119.852 42.6562 119.828V120.984C42.3906 121.031 42.1328 121.062 41.8672 121.062ZM48 121.148C45.5938 121.148 44.1406 119.461 44.1406 116.82V116.812C44.1406 114.211 45.625 112.43 47.9141 112.43C50.2031 112.43 51.5938 114.133 51.5938 116.648V117.18H45.5312C45.5703 118.922 46.5312 119.938 48.0312 119.938C49.1719 119.938 49.875 119.398 50.1016 118.891L50.1328 118.82H51.4922L51.4766 118.883C51.1875 120.023 49.9844 121.148 48 121.148ZM47.9062 113.641C46.6562 113.641 45.7031 114.492 45.5547 116.094H50.2109C50.0703 114.43 49.1484 113.641 47.9062 113.641ZM53.7031 121V112.578H55.0625V113.859H55.1875C55.5625 112.953 56.3594 112.43 57.4609 112.43C58.6016 112.43 59.3984 113.031 59.7891 113.906H59.9141C60.3672 113.016 61.3281 112.43 62.4922 112.43C64.2109 112.43 65.1719 113.414 65.1719 115.18V121H63.8125V115.492C63.8125 114.25 63.2422 113.633 62.0547 113.633C60.8828 113.633 60.1094 114.516 60.1094 115.586V121H58.75V115.281C58.75 114.281 58.0625 113.633 57 113.633C55.8984 113.633 55.0625 114.594 55.0625 115.781V121H53.7031ZM67.625 123.812V112.578H68.9844V113.922H69.1094C69.625 112.984 70.5625 112.43 71.7344 112.43C73.8672 112.43 75.2656 114.156 75.2656 116.781V116.797C75.2656 119.438 73.875 121.148 71.7344 121.148C70.5781 121.148 69.5703 120.57 69.1094 119.672H68.9844V123.812H67.625ZM71.4219 119.945C72.9609 119.945 73.875 118.758 73.875 116.797V116.781C73.875 114.82 72.9609 113.633 71.4219 113.633C69.8906 113.633 68.9531 114.836 68.9531 116.781V116.797C68.9531 118.742 69.8906 119.945 71.4219 119.945ZM85.3672 121.148C82.9688 121.148 81.4844 119.492 81.4844 116.797V116.781C81.4844 114.078 82.9688 112.43 85.3672 112.43C87.7656 112.43 89.25 114.078 89.25 116.781V116.797C89.25 119.492 87.7656 121.148 85.3672 121.148ZM85.3672 119.945C86.9609 119.945 87.8594 118.781 87.8594 116.797V116.781C87.8594 114.789 86.9609 113.633 85.3672 113.633C83.7734 113.633 82.875 114.789 82.875 116.781V116.797C82.875 118.781 83.7734 119.945 85.3672 119.945ZM94.1797 121.148C92.2656 121.148 91.2812 120.023 91.2812 118.031V112.578H92.6406V117.703C92.6406 119.219 93.1875 119.945 94.5312 119.945C96.0156 119.945 96.8047 119.039 96.8047 117.562V112.578H98.1641V121H96.8047V119.742H96.6797C96.2656 120.641 95.4141 121.148 94.1797 121.148ZM103.695 121.062C101.961 121.062 101.234 120.422 101.234 118.812V113.703H99.9062V112.578H101.234V110.398H102.641V112.578H104.484V113.703H102.641V118.469C102.641 119.461 102.984 119.859 103.859 119.859C104.102 119.859 104.234 119.852 104.484 119.828V120.984C104.219 121.031 103.961 121.062 103.695 121.062ZM109.25 121.148C107.375 121.148 106.086 120.242 105.93 118.852H107.32C107.547 119.555 108.219 120.016 109.297 120.016C110.43 120.016 111.234 119.477 111.234 118.711V118.695C111.234 118.125 110.805 117.727 109.766 117.477L108.461 117.164C106.883 116.789 106.172 116.102 106.172 114.891V114.883C106.172 113.484 107.516 112.43 109.305 112.43C111.07 112.43 112.297 113.312 112.484 114.688H111.148C110.969 114.023 110.312 113.562 109.297 113.562C108.297 113.562 107.562 114.078 107.562 114.82V114.836C107.562 115.406 107.984 115.766 108.977 116.008L110.273 116.32C111.859 116.703 112.625 117.391 112.625 118.594V118.609C112.625 120.109 111.164 121.148 109.25 121.148ZM115.453 110.953C114.938 110.953 114.516 110.531 114.516 110.016C114.516 109.5 114.938 109.078 115.453 109.078C115.969 109.078 116.391 109.5 116.391 110.016C116.391 110.531 115.969 110.953 115.453 110.953ZM114.766 121V112.578H116.125V121H114.766ZM121.797 121.148C119.664 121.148 118.266 119.422 118.266 116.797V116.781C118.266 114.141 119.656 112.43 121.797 112.43C122.953 112.43 123.961 113.008 124.422 113.906H124.547V109.234H125.906V121H124.547V119.656H124.422C123.906 120.594 122.969 121.148 121.797 121.148ZM122.109 119.945C123.641 119.945 124.578 118.742 124.578 116.797V116.781C124.578 114.836 123.641 113.633 122.109 113.633C120.57 113.633 119.656 114.82 119.656 116.781V116.797C119.656 118.758 120.57 119.945 122.109 119.945ZM131.953 121.148C129.547 121.148 128.094 119.461 128.094 116.82V116.812C128.094 114.211 129.578 112.43 131.867 112.43C134.156 112.43 135.547 114.133 135.547 116.648V117.18H129.484C129.523 118.922 130.484 119.938 131.984 119.938C133.125 119.938 133.828 119.398 134.055 118.891L134.086 118.82H135.445L135.43 118.883C135.141 120.023 133.938 121.148 131.953 121.148ZM131.859 113.641C130.609 113.641 129.656 114.492 129.508 116.094H134.164C134.023 114.43 133.102 113.641 131.859 113.641Z" fill="black"/>
<path d="M81.4766 67.125V65.8047L89.3516 62.3281V63.6172L82.7188 66.4375L89.3516 69.2656V70.6016L81.4766 67.125ZM96.2266 71V70.0312L100.039 65.9062C101.477 64.3516 101.898 63.7656 101.898 62.7812V62.7656C101.898 61.5781 101.094 60.6875 99.7656 60.6875C98.4141 60.6875 97.5156 61.5703 97.5156 62.8984L97.5078 62.9141L96.1641 62.9062L96.1484 62.8984C96.1562 60.8984 97.7031 59.4609 99.8594 59.4609C101.828 59.4609 103.336 60.7969 103.336 62.6172V62.6328C103.336 63.9219 102.781 64.8594 100.742 66.9609L98.1797 69.6094V69.7344H103.523V71H96.2266Z" fill="black"/>
<path d="M269.312 65.6953L261.516 68.375V67.1641L268.023 65.0312L261.516 62.8984V61.7266L269.312 64.4062V65.6953ZM269.312 70.6016H261.516V69.5156H269.312V70.6016ZM276.227 71V70.0312L280.039 65.9062C281.477 64.3516 281.898 63.7656 281.898 62.7812V62.7656C281.898 61.5781 281.094 60.6875 279.766 60.6875C278.414 60.6875 277.516 61.5703 277.516 62.8984L277.508 62.9141L276.164 62.9062L276.148 62.8984C276.156 60.8984 277.703 59.4609 279.859 59.4609C281.828 59.4609 283.336 60.7969 283.336 62.6172V62.6328C283.336 63.9219 282.781 64.8594 280.742 66.9609L278.18 69.6094V69.7344H283.523V71H276.227Z" fill="black"/>
<path d="M271.367 112V103.578H272.727V104.844H272.852C273.273 103.953 274.062 103.43 275.305 103.43C277.195 103.43 278.25 104.547 278.25 106.547V112H276.891V106.875C276.891 105.359 276.266 104.633 274.922 104.633C273.578 104.633 272.727 105.539 272.727 107.016V112H271.367ZM284.172 112.148C281.773 112.148 280.289 110.492 280.289 107.797V107.781C280.289 105.078 281.773 103.43 284.172 103.43C286.57 103.43 288.055 105.078 288.055 107.781V107.797C288.055 110.492 286.57 112.148 284.172 112.148ZM284.172 110.945C285.766 110.945 286.664 109.781 286.664 107.797V107.781C286.664 105.789 285.766 104.633 284.172 104.633C282.578 104.633 281.68 105.789 281.68 107.781V107.797C281.68 109.781 282.578 110.945 284.172 110.945Z" fill="black"/>
<path d="M1.36719 208V199.578H2.72656V200.844H2.85156C3.27344 199.953 4.0625 199.43 5.30469 199.43C7.19531 199.43 8.25 200.547 8.25 202.547V208H6.89062V202.875C6.89062 201.359 6.26562 200.633 4.92188 200.633C3.57812 200.633 2.72656 201.539 2.72656 203.016V208H1.36719ZM14.1719 208.148C11.7734 208.148 10.2891 206.492 10.2891 203.797V203.781C10.2891 201.078 11.7734 199.43 14.1719 199.43C16.5703 199.43 18.0547 201.078 18.0547 203.781V203.797C18.0547 206.492 16.5703 208.148 14.1719 208.148ZM14.1719 206.945C15.7656 206.945 16.6641 205.781 16.6641 203.797V203.781C16.6641 201.789 15.7656 200.633 14.1719 200.633C12.5781 200.633 11.6797 201.789 11.6797 203.781V203.797C11.6797 205.781 12.5781 206.945 14.1719 206.945Z" fill="black"/>
<path d="M140.039 210.953C139.859 210.953 139.625 210.938 139.438 210.906V209.789C139.602 209.82 139.812 209.828 140 209.828C140.773 209.828 141.242 209.477 141.547 208.508L141.703 208.008L138.586 199.578H140.039L142.352 206.508H142.477L144.781 199.578H146.211L142.922 208.516C142.227 210.406 141.531 210.953 140.039 210.953ZM151.133 208.148C148.727 208.148 147.273 206.461 147.273 203.82V203.812C147.273 201.211 148.758 199.43 151.047 199.43C153.336 199.43 154.727 201.133 154.727 203.648V204.18H148.664C148.703 205.922 149.664 206.938 151.164 206.938C152.305 206.938 153.008 206.398 153.234 205.891L153.266 205.82H154.625L154.609 205.883C154.32 207.023 153.117 208.148 151.133 208.148ZM151.039 200.641C149.789 200.641 148.836 201.492 148.688 203.094H153.344C153.203 201.43 152.281 200.641 151.039 200.641ZM159.727 208.148C157.852 208.148 156.562 207.242 156.406 205.852H157.797C158.023 206.555 158.695 207.016 159.773 207.016C160.906 207.016 161.711 206.477 161.711 205.711V205.695C161.711 205.125 161.281 204.727 160.242 204.477L158.938 204.164C157.359 203.789 156.648 203.102 156.648 201.891V201.883C156.648 200.484 157.992 199.43 159.781 199.43C161.547 199.43 162.773 200.312 162.961 201.688H161.625C161.445 201.023 160.789 200.562 159.773 200.562C158.773 200.562 158.039 201.078 158.039 201.82V201.836C158.039 202.406 158.461 202.766 159.453 203.008L160.75 203.32C162.336 203.703 163.102 204.391 163.102 205.594V205.609C163.102 207.109 161.641 208.148 159.727 208.148Z" fill="black"/>
<path d="M86 95L97.1535 92.0114L88.9886 83.8464L86 95ZM140.293 39.2929L91.6569 87.9289L93.0711 89.3431L141.707 40.7071L140.293 39.2929Z" fill="#1F77B4"/>
<path d="M277 94L274.011 82.8465L265.846 91.0114L277 94ZM222.293 40.7071L269.929 88.3432L271.343 86.9289L223.707 39.2929L222.293 40.7071Z" fill="#1F77B4"/>
<path d="M4.32812 163.125V161.805L12.2031 158.328V159.617L5.57031 162.438L12.2031 165.266V166.602L4.32812 163.125ZM19.5469 167L24.6094 157.094V156.984H18.5781V155.727H26.0391V157.031L21.0234 167H19.5469ZM31.7266 167.266C29.2344 167.266 27.75 164.992 27.75 161.367V161.352C27.75 157.727 29.2344 155.461 31.7266 155.461C34.2188 155.461 35.7188 157.727 35.7188 161.352V161.367C35.7188 164.992 34.2188 167.266 31.7266 167.266ZM31.7266 166.039C33.3438 166.039 34.3047 164.242 34.3047 161.367V161.352C34.3047 158.477 33.3438 156.695 31.7266 156.695C30.1094 156.695 29.1641 158.477 29.1641 161.352V161.367C29.1641 164.242 30.1094 166.039 31.7266 166.039Z" fill="black"/>
<path d="M138.164 161.695L130.367 164.375V163.164L136.875 161.031L130.367 158.898V157.727L138.164 160.406V161.695ZM138.164 166.602H130.367V165.516H138.164V166.602ZM145.547 167L150.609 157.094V156.984H144.578V155.727H152.039V157.031L147.023 167H145.547ZM157.727 167.266C155.234 167.266 153.75 164.992 153.75 161.367V161.352C153.75 157.727 155.234 155.461 157.727 155.461C160.219 155.461 161.719 157.727 161.719 161.352V161.367C161.719 164.992 160.219 167.266 157.727 167.266ZM157.727 166.039C159.344 166.039 160.305 164.242 160.305 161.367V161.352C160.305 158.477 159.344 156.695 157.727 156.695C156.109 156.695 155.164 158.477 155.164 161.352V161.367C155.164 164.242 156.109 166.039 157.727 166.039Z" fill="black"/>
<path d="M14 191L25.1535 188.011L16.9886 179.846L14 191ZM68.2929 135.293L19.6569 183.929L21.0711 185.343L69.7071 136.707L68.2929 135.293Z" fill="#1F77B4"/>
<path d="M146 189L143.011 177.846L134.846 186.011L146 189ZM91.2929 135.707L138.929 183.343L140.343 181.929L92.7071 134.293L91.2929 135.707Z" fill="#1F77B4"/>
</svg>
