<svg width="487" height="360" viewBox="0 0 487 360" fill="none" xmlns="http://www.w3.org/2000/svg">
<line x1="92.5" y1="35" x2="92.5" y2="326" stroke="black" stroke-width="3"/>
<line x1="91" y1="324.5" x2="392" y2="324.5" stroke="black" stroke-width="3"/>
<path d="M321.453 343.992H318.781L317.973 347.871H320.621L320.305 349.441H317.656L316.742 354H315.125L316.051 349.441H312.336L311.398 354H309.781L310.695 349.441H308.188L308.516 347.871H311.047L311.832 343.992H309.336L309.641 342.445H312.148L313.039 338.004H314.68L313.766 342.445H317.492L318.395 338.004H320L319.098 342.445H321.77L321.453 343.992ZM313.438 343.969L312.617 347.906H316.379L317.199 343.969H313.438ZM328.625 354V337.16H330.629V354H328.625ZM340.016 354.199C338.258 354.199 337.062 353.414 336.336 352.148H336.277V354H334.344V337.16H336.359V343.371H336.418C337.051 342.305 338.48 341.496 340.039 341.496C342.91 341.496 344.926 343.535 344.926 347.238V348.434C344.926 351.996 342.98 354.199 340.016 354.199ZM339.77 352.441C341.621 352.441 342.898 350.965 342.898 348.328V347.355C342.898 344.695 341.609 343.254 339.77 343.254C337.625 343.254 336.336 344.684 336.336 347.355V348.305C336.336 350.977 337.613 352.441 339.77 352.441ZM347.516 345.211C347.516 342.609 349.707 341.484 352.074 341.484C354.969 341.484 356.457 343.137 356.457 345.176H354.582C354.512 344.238 353.926 343.137 352.004 343.137C350.539 343.137 349.484 343.781 349.484 345C349.484 346.383 351.113 346.676 352.52 346.934C354.828 347.344 356.773 347.965 356.773 350.367C356.773 352.816 354.793 354.199 351.898 354.199C349.191 354.199 347.305 352.898 347.305 350.684H349.273C349.449 351.809 350.41 352.547 352.051 352.547C353.938 352.547 354.793 351.656 354.793 350.613C354.793 349.219 353.422 348.949 351.699 348.609C349.402 348.141 347.516 347.438 347.516 345.211ZM364.285 338.719C364.285 337.992 364.859 337.43 365.574 337.43C366.289 337.43 366.875 337.992 366.875 338.719C366.875 339.434 366.289 339.996 365.574 339.996C364.859 339.996 364.285 339.434 364.285 338.719ZM364.566 354V341.684H366.582V354H364.566ZM370.309 354V341.684H372.312V343.312H372.371C372.828 342.527 373.965 341.484 375.969 341.484C378.5 341.484 380.387 343.102 380.387 346.102V354H378.371V346.441C378.371 344.367 377.152 343.312 375.359 343.312C373.238 343.312 372.324 344.812 372.324 346.5V354H370.309ZM389.363 354V343.371H387.699V341.684H389.363V340.453C389.363 338.098 390.547 337.008 393.078 337.008C393.488 337.008 393.77 337.043 393.98 337.078V338.73C393.805 338.707 393.652 338.684 393.348 338.684C392.012 338.684 391.367 339.117 391.367 340.617V341.684H393.793V343.371H391.379V354H389.363ZM396.863 354V341.684H398.879V343.195H398.938C399.301 342.457 400.227 341.496 401.973 341.496C402.23 341.496 402.488 341.52 402.734 341.555V343.395C402.523 343.359 402.125 343.348 401.75 343.348C399.57 343.348 398.891 344.707 398.891 346.371V354H396.863ZM405.277 338.719C405.277 337.992 405.852 337.43 406.566 337.43C407.281 337.43 407.867 337.992 407.867 338.719C407.867 339.434 407.281 339.996 406.566 339.996C405.852 339.996 405.277 339.434 405.277 338.719ZM405.559 354V341.684H407.574V354H405.559ZM415.73 341.496C417.359 341.496 418.648 342.305 419.27 343.395H419.328V337.16H421.344V354H419.41V352.148H419.363C418.672 353.414 417.383 354.188 415.73 354.188C412.52 354.188 410.809 351.832 410.809 348.398V347.285C410.809 343.934 412.625 341.496 415.73 341.496ZM416.012 343.254C414.184 343.254 412.836 344.613 412.836 347.355V348.328C412.836 351.07 414.184 352.43 416.047 352.43C418.109 352.43 419.363 350.953 419.363 348.34V347.355C419.363 344.871 418.086 343.254 416.012 343.254ZM429.77 356.824C431.715 356.824 432.98 355.688 432.98 353.754V351.938H432.922C432.43 353.004 431.082 353.883 429.406 353.883C426.535 353.883 424.484 351.867 424.484 348.176V347.156C424.484 343.535 426.512 341.496 429.406 341.496C431.082 341.496 432.418 342.375 432.992 343.418H433.051V341.684H434.996V353.777C434.996 356.93 432.547 358.512 429.758 358.512C426.629 358.512 425.035 356.965 424.754 354.914H426.816C427.039 355.91 428.082 356.824 429.77 356.824ZM429.793 343.23C427.719 343.23 426.5 344.707 426.5 347.309V348.07C426.5 350.625 427.719 352.16 429.793 352.16C431.809 352.16 432.98 350.613 432.98 348.07V347.309C432.98 344.812 431.738 343.23 429.793 343.23ZM443.305 354.199C440.094 354.199 438.137 351.938 438.137 348.434V347.051C438.137 343.805 439.977 341.484 443.211 341.484C446.434 341.484 448.285 343.805 448.285 347.191V348.34H440.152V348.562C440.152 350.906 441.348 352.512 443.352 352.512C444.781 352.512 445.719 351.797 446.117 350.648H448.121C447.652 352.688 446.023 354.199 443.305 354.199ZM440.152 346.711H446.27V346.676C446.27 344.719 445.062 343.172 443.223 343.172C441.348 343.172 440.152 344.73 440.152 346.676V346.711ZM460.051 337.16H461.727C460.051 339.082 458.762 343.242 458.762 347.18C458.762 350.977 459.723 354.141 461.691 357.621H459.945C457.953 355.09 456.758 351.34 456.758 347.203C456.758 343.055 457.777 339.891 460.051 337.16ZM471.066 354L467.926 349.348H467.914L464.797 354H462.512L466.742 347.836L462.617 341.684H465.031L468.043 346.359H468.055L471.066 341.684H473.375L469.227 347.836L473.469 354H471.066ZM477.91 358.043H476.023V352.16H475.93C475.801 352.23 474.395 353.168 474.219 353.285V351.609C474.406 351.48 475.848 350.531 476.047 350.414H477.91V358.043ZM479.176 337.16H480.852C483.125 339.891 484.156 343.055 484.156 347.203C484.156 351.34 482.961 355.09 480.969 357.621H479.211C481.191 354.141 482.141 350.977 482.141 347.18C482.141 343.242 480.852 339.082 479.176 337.16Z" fill="black"/>
<path d="M2.56641 16.6836V13.6133H4.57031V16.6836H7.00781V18.3711H4.57031V25.5781C4.57031 27.0547 5.0625 27.4297 6.57422 27.4297C6.77344 27.4297 6.92578 27.4297 7.08984 27.4062V29.0234C6.91406 29.0586 6.49219 29.1055 6.07031 29.1055C3.15234 29.1055 2.55469 27.9805 2.55469 25.5547V18.3711H0.902344V16.6836H2.56641ZM14.5312 29.1992C11.3203 29.1992 9.36328 26.9375 9.36328 23.4336V22.0508C9.36328 18.8047 11.2031 16.4844 14.4375 16.4844C17.6602 16.4844 19.5117 18.8047 19.5117 22.1914V23.3398H11.3789V23.5625C11.3789 25.9062 12.5742 27.5117 14.5781 27.5117C16.0078 27.5117 16.9453 26.7969 17.3438 25.6484H19.3477C18.8789 27.6875 17.25 29.1992 14.5312 29.1992ZM11.3789 21.7109H17.4961V21.6758C17.4961 19.7188 16.2891 18.1719 14.4492 18.1719C12.5742 18.1719 11.3789 19.7305 11.3789 21.6758V21.7109ZM22.5586 29V16.6836H24.5625V18.1953H24.668C25.0664 17.3516 26.1562 16.4844 27.7852 16.4844C29.707 16.4844 30.8555 17.2578 31.3359 18.4648H31.4297C31.8984 17.4102 33.1992 16.4844 35.2031 16.4844C37.8047 16.4844 39.3398 18.0898 39.3398 20.6211V29H37.3359V21.0312C37.3359 19.4609 36.4336 18.3008 34.6758 18.3008C32.9297 18.3008 31.957 19.5078 31.957 21.2188V29H29.9531V21.2188C29.9531 19.332 28.9453 18.3008 27.2695 18.3008C25.7578 18.3008 24.5742 19.332 24.5742 21.1953V29H22.5586ZM48.457 29.1992C46.8867 29.1992 45.6797 28.4492 44.9883 27.3594H44.9297V33.0898H42.9141V16.6836H44.8477V18.4531H44.9062C45.6211 17.293 46.8867 16.4961 48.5391 16.4961C51.3164 16.4961 53.3672 18.6289 53.3672 22.2734V23.4102C53.3672 27.0078 51.3516 29.1992 48.457 29.1992ZM48.2578 27.4414C50.0977 27.4414 51.3398 25.9648 51.3398 23.2578V22.3438C51.3398 19.7539 50.1914 18.2305 48.1992 18.2305C46.1484 18.2305 44.8945 19.8828 44.8945 22.332V23.2578C44.8945 25.7773 46.1602 27.4414 48.2578 27.4414ZM65.1914 12.1602H66.8672C65.1914 14.082 63.9023 18.2422 63.9023 22.1797C63.9023 25.9766 64.8633 29.1406 66.832 32.6211H65.0859C63.0938 30.0898 61.8984 26.3398 61.8984 22.2031C61.8984 18.0547 62.918 14.8906 65.1914 12.1602ZM76.207 29L73.0664 24.3477H73.0547L69.9375 29H67.6523L71.8828 22.8359L67.7578 16.6836H70.1719L73.1836 21.3594H73.1953L76.207 16.6836H78.5156L74.3672 22.8359L78.6094 29H76.207ZM81.1758 27.8164H79.3945V27.7227C79.3945 26.5156 80.2734 25.2734 82.1836 25.2734C83.8711 25.2734 84.9609 26.2227 84.9609 27.4648C84.9609 28.5547 84.2578 29.1875 83.6133 29.8672L82.1016 31.4844V31.5547H85.0898V33.043H79.5117V31.8828L82.2891 29.0352C82.6758 28.6484 83.0977 28.2031 83.0977 27.6406C83.0977 27.1367 82.6875 26.7383 82.1367 26.7383C81.5391 26.7383 81.1758 27.1836 81.1758 27.6992C81.1758 27.7461 81.1758 27.793 81.1758 27.8164ZM85.9805 12.1602H87.6562C89.9297 14.8906 90.9609 18.0547 90.9609 22.2031C90.9609 26.3398 89.7656 30.0898 87.7734 32.6211H86.0156C87.9961 29.1406 88.9453 25.9766 88.9453 22.1797C88.9453 18.2422 87.6562 14.082 85.9805 12.1602Z" fill="black"/>
<path d="M289.32 159L284.984 151.055H284.75L280.438 159H272.562L280.086 146.461L272.328 133.969H280.93L285.148 141.867H285.383L289.625 133.969H297.828L289.812 146.461L297.594 159H289.32Z" fill="#B21B1B"/>
<path d="M212.32 294L207.984 286.055H207.75L203.438 294H195.562L203.086 281.461L195.328 268.969H203.93L208.148 276.867H208.383L212.625 268.969H220.828L212.812 281.461L220.594 294H212.32Z" fill="#B21B1B"/>
<path d="M173.32 236L168.984 228.055H168.75L164.438 236H156.562L164.086 223.461L156.328 210.969H164.93L169.148 218.867H169.383L173.625 210.969H181.828L173.812 223.461L181.594 236H173.32Z" fill="#B21B1B"/>
<path d="M333.32 217L328.984 209.055H328.75L324.438 217H316.562L324.086 204.461L316.328 191.969H324.93L329.148 199.867H329.383L333.625 191.969H341.828L333.812 204.461L341.594 217H333.32Z" fill="#B21B1B"/>
<path d="M333.32 273L328.984 265.055H328.75L324.438 273H316.562L324.086 260.461L316.328 247.969H324.93L329.148 255.867H329.383L333.625 247.969H341.828L333.812 260.461L341.594 273H333.32Z" fill="#B21B1B"/>
<path d="M366.32 322L361.984 314.055H361.75L357.438 322H349.562L357.086 309.461L349.328 296.969H357.93L362.148 304.867H362.383L366.625 296.969H374.828L366.812 309.461L374.594 322H366.32Z" fill="#B21B1B"/>
<path d="M296.32 322L291.984 314.055H291.75L287.438 322H279.562L287.086 309.461L279.328 296.969H287.93L292.148 304.867H292.383L296.625 296.969H304.828L296.812 309.461L304.594 322H296.32Z" fill="#B21B1B"/>
<path d="M235.617 67.5C243.211 67.5 247.5 72.5391 247.5 79.5703V81.1875C247.5 88.7812 243.211 93.4688 235.617 93.4688C228 93.4688 223.711 88.7812 223.711 81.2109V79.6172C223.711 72.5859 228.023 67.5 235.617 67.5ZM235.617 73.125C232.453 73.125 231.328 76.1016 231.328 79.5V81.4219C231.328 84.6562 232.406 87.8438 235.617 87.8438C238.805 87.8438 239.883 84.6797 239.883 81.4219V79.5C239.883 76.0547 238.734 73.125 235.617 73.125Z" fill="#1F77B4"/>
<path d="M202.617 45.5C210.211 45.5 214.5 50.5391 214.5 57.5703V59.1875C214.5 66.7812 210.211 71.4688 202.617 71.4688C195 71.4688 190.711 66.7812 190.711 59.2109V57.6172C190.711 50.5859 195.023 45.5 202.617 45.5ZM202.617 51.125C199.453 51.125 198.328 54.1016 198.328 57.5V59.4219C198.328 62.6562 199.406 65.8438 202.617 65.8438C205.805 65.8438 206.883 62.6797 206.883 59.4219V57.5C206.883 54.0547 205.734 51.125 202.617 51.125Z" fill="#1F77B4"/>
<path d="M147.617 92.5C155.211 92.5 159.5 97.5391 159.5 104.57V106.188C159.5 113.781 155.211 118.469 147.617 118.469C140 118.469 135.711 113.781 135.711 106.211V104.617C135.711 97.5859 140.023 92.5 147.617 92.5ZM147.617 98.125C144.453 98.125 143.328 101.102 143.328 104.5V106.422C143.328 109.656 144.406 112.844 147.617 112.844C150.805 112.844 151.883 109.68 151.883 106.422V104.5C151.883 101.055 150.734 98.125 147.617 98.125Z" fill="#1F77B4"/>
<path d="M133.617 35.5C141.211 35.5 145.5 40.5391 145.5 47.5703V49.1875C145.5 56.7812 141.211 61.4688 133.617 61.4688C126 61.4688 121.711 56.7812 121.711 49.2109V47.6172C121.711 40.5859 126.023 35.5 133.617 35.5ZM133.617 41.125C130.453 41.125 129.328 44.1016 129.328 47.5V49.4219C129.328 52.6562 130.406 55.8438 133.617 55.8438C136.805 55.8438 137.883 52.6797 137.883 49.4219V47.5C137.883 44.0547 136.734 41.125 133.617 41.125Z" fill="#1F77B4"/>
<path d="M241.617 113.5C249.211 113.5 253.5 118.539 253.5 125.57V127.188C253.5 134.781 249.211 139.469 241.617 139.469C234 139.469 229.711 134.781 229.711 127.211V125.617C229.711 118.586 234.023 113.5 241.617 113.5ZM241.617 119.125C238.453 119.125 237.328 122.102 237.328 125.5V127.422C237.328 130.656 238.406 133.844 241.617 133.844C244.805 133.844 245.883 130.68 245.883 127.422V125.5C245.883 122.055 244.734 119.125 241.617 119.125Z" fill="#1F77B4"/>
<line x1="271.5" y1="326" x2="271.5" y2="32" stroke="black"/>
<line x1="93" y1="179.5" x2="272" y2="179.5" stroke="black"/>
<path d="M251.871 23L248.73 18.3477H248.719L245.602 23H243.316L247.547 16.8359L243.422 10.6836H245.836L248.848 15.3594H248.859L251.871 10.6836H254.18L250.031 16.8359L254.273 23H251.871ZM258.715 27.043H256.828V21.1602H256.734C256.605 21.2305 255.199 22.168 255.023 22.2852V20.6094C255.211 20.4805 256.652 19.5312 256.852 19.4141H258.715V27.043ZM265.98 17.8438V16.1914L276 10.1562V12.3008L268.102 16.8828V17L276 21.3242V23.457L265.98 17.8438ZM285.82 11.4219H283.828V11.3516C283.828 8.89062 285.633 6.66406 288.879 6.66406C291.867 6.66406 293.824 8.52734 293.824 11.0469C293.824 12.9805 292.664 14.293 291.105 16.1094L286.793 21.1719V21.207H294.129V23H283.934V21.7109L289.91 14.7852C290.812 13.7539 291.75 12.6406 291.75 11.1875C291.75 9.48828 290.496 8.43359 288.82 8.43359C286.934 8.43359 285.82 9.79297 285.82 11.3516V11.4219Z" fill="black"/>
<path d="M21.8711 186L18.7305 181.348H18.7188L15.6016 186H13.3164L17.5469 179.836L13.4219 173.684H15.8359L18.8477 178.359H18.8594L21.8711 173.684H24.1797L20.0312 179.836L24.2734 186H21.8711ZM26.8398 184.816H25.0586V184.723C25.0586 183.516 25.9375 182.273 27.8477 182.273C29.5352 182.273 30.625 183.223 30.625 184.465C30.625 185.555 29.9219 186.188 29.2773 186.867L27.7656 188.484V188.555H30.7539V190.043H25.1758V188.883L27.9531 186.035C28.3398 185.648 28.7617 185.203 28.7617 184.641C28.7617 184.137 28.3516 183.738 27.8008 183.738C27.2031 183.738 26.8398 184.184 26.8398 184.699C26.8398 184.746 26.8398 184.793 26.8398 184.816ZM48.2852 176.461V177.75L37.1289 181.688V179.836L45.1562 177.164V177.105L37.1289 174.609V172.793L48.2852 176.461ZM48.2969 184.734H37.1406V183.105H48.2969V184.734ZM55.2578 170.004H65.4062V171.879L58.8555 186H56.7109L63.4492 171.832V171.797H55.2578V170.004ZM67.6211 178.641V177.398C67.6211 172.688 69.625 169.664 73.2695 169.664C76.9141 169.664 78.8828 172.676 78.8828 177.398V178.641C78.8828 183.316 76.9258 186.34 73.2578 186.34C69.6133 186.34 67.6211 183.34 67.6211 178.641ZM69.6484 177.41V178.617C69.6484 182.402 71.0195 184.547 73.2578 184.547C75.4844 184.547 76.8555 182.402 76.8555 178.617V177.41C76.8555 173.625 75.4844 171.457 73.2578 171.457C71.0195 171.457 69.6484 173.625 69.6484 177.41Z" fill="black"/>
</svg>
